<svg xmlns="http://www.w3.org/2000/svg" viewBox="0 21.33 1021.76 1024"><path d="M120.337 21.333h781.39c33.126 0 63.105 13.47 84.76 35.234l.004.005c21.778 21.893 35.24 52.076 35.24 85.403v.35-.02V488.65c.02.798.03 1.737.03 2.68 0 66.46-53.877 120.336-120.337 120.336H737.01V479.522H284.722v132.144H120.003c-33.013 0-62.9-13.38-84.537-35.012C13.628 554.806.093 524.657 0 491.346V142.124v-.187c0-33.315 13.463-63.486 35.244-85.37l-.005.005c21.658-21.768 51.637-35.24 84.763-35.24.118 0 .236 0 .353.002h-.018zm.454 68.115H120.222c-14.382 0-27.4 5.85-36.8 15.3v.003c-9.458 9.5-15.304 22.6-15.304 37.067v.132-.008 349.386c.047 14.457 5.92 27.532 15.394 37.01 9.394 9.398 22.374 15.212 36.712 15.212h96.386V411.406h588.516V543.55h96.288c28.84 0 52.222-23.38 52.222-52.222 0-.48-.006-.957-.02-1.432l.002.07V142.124v-.25c0-14.484-5.845-27.603-15.306-37.125l.003.002C928.917 95.3 915.907 89.45 901.53 89.45H120.792zM337.4 609.395h-86.733V541.28h86.733zm433.667 0h-86.733V541.28h86.733zM337.398 915.46c-66.442-.51-120.18-54.183-120.79-120.55v-.06l68.114-.362c.255 29.09 23.768 52.603 52.833 52.857h.024c29.003-.13 52.468-23.658 52.493-52.673V577.608h68.115v217.06c-.077 66.68-54.11 120.715-120.784 120.792h-.007zm346.298 129.873c-66.383-.102-120.157-53.94-120.157-120.337v-.67.034-346.752h68.116v346.934c0 29.092 23.584 52.676 52.676 52.676s52.676-23.584 52.676-52.676h68.115c-.077 66.68-54.11 120.714-120.784 120.79h-.008zM857.8 262.915h-86.734V194.8H857.8zm-173.468 0h-520.4V194.8h520.4z"/></svg>