<svg xmlns="http://www.w3.org/2000/svg" viewBox="0 21.33 1043.05 1024"><path d="M183.213 21.333h676.62v850.31h-676.62zM791.81 89.358H251.24v714.26h540.57zM825.82 697.5H217.227v-68.025H825.82zM521.524 524.263c-66.842-.077-121.007-54.242-121.084-121.077v-.007c0-99.997 93.057-194.234 97.048-198.18l24.035-24.035L545.558 205c3.945 3.945 97.05 98.182 97.05 198.18-.078 66.84-54.243 121.006-121.078 121.083h-.007zm0-243.21c-28.5 33.097-47.66 74.98-52.962 121.08l-.097 1.046c0 29.303 23.755 53.058 53.06 53.058s53.058-23.755 53.058-53.06c-5.4-47.145-24.56-89.028-53.307-122.422l.25.296zm-217.225 764.28H0v-68.025h304.298c29.304 0 53.06-23.755 53.06-53.06v-86.617h68.024v86.62c0 66.872-54.21 121.083-121.084 121.083zm738.75 0h-304.3c-66.603-.508-120.472-54.314-121.083-120.844v-86.86h68.025v86.62c.33 29.232 23.992 52.83 53.22 53.058h304.137z"/></svg>