<svg xmlns="http://www.w3.org/2000/svg" version="1.1" viewBox="115.86 18.49 267.65 463.08">
<path d="M0 0 C1.31299362 -0.00679667 1.31299362 -0.00679667 2.65251237 -0.01373065 C5.57945616 -0.02636952 8.50621374 -0.02475459 11.43318176 -0.02310181 C13.53442117 -0.02908746 15.63565838 -0.03589309 17.7368927 -0.04345703 C23.44165127 -0.06112261 29.14634983 -0.06581271 34.85113311 -0.0670886 C38.41753942 -0.06851069 41.9839305 -0.07278143 45.55033302 -0.07808304 C57.99908541 -0.09658668 70.44779498 -0.10475342 82.89656067 -0.10317993 C94.48904866 -0.10197914 106.08135027 -0.12306846 117.67379111 -0.15466726 C127.63494464 -0.18084899 137.59603739 -0.19154639 147.55722505 -0.19026911 C153.50271646 -0.18975995 159.44804232 -0.19541795 165.39349937 -0.21662521 C170.98894578 -0.23603884 176.58406926 -0.23611049 182.17952728 -0.22159195 C184.22770219 -0.2195065 186.27589747 -0.22418893 188.32403755 -0.23631287 C202.09978587 -0.31254491 213.74168834 -0.058228 224.24494934 9.97445679 C229.62775564 16.31925056 232.31193927 23.44234122 232.32448292 31.68379307 C232.32683515 32.341036 232.32918738 32.99827893 232.33161089 33.67543831 C232.33830504 35.89325602 232.33784254 38.11101519 232.33743286 40.32884216 C232.34073124 41.92885265 232.34445675 43.52886231 232.34857434 45.1288709 C232.35860563 49.53800019 232.36231295 53.94711586 232.36496365 58.35625494 C232.36886341 63.10695499 232.37844204 67.85764424 232.38717651 72.6083374 C232.40695123 84.08813828 232.41700886 95.56794006 232.4259043 107.04775372 C232.43028595 112.4523273 232.43565312 117.8568999 232.44089317 123.2614727 C232.45790721 141.22551425 232.47240134 159.18955518 232.47964191 177.15360355 C232.48155185 181.81678836 232.48347217 186.47997317 232.48542786 191.14315796 C232.4859116 192.3021875 232.48639534 193.46121703 232.48689374 194.65536868 C232.49519384 213.4304789 232.52052966 232.20552541 232.55300853 250.98060782 C232.58607439 270.25198384 232.60409029 289.52332749 232.60728616 308.79473203 C232.60945179 319.61673045 232.61820828 330.43863598 232.64374733 341.26060677 C232.66544791 350.47743549 232.67350792 359.69414877 232.66378055 368.91100014 C232.65923387 373.6129938 232.66114346 378.31474924 232.68054199 383.01671028 C232.69816031 387.32441757 232.69718678 391.63171262 232.6816447 395.93942421 C232.67926659 397.49468887 232.68360275 399.04998198 232.69547335 400.60520316 C232.78491393 413.10102445 231.00036943 422.0692369 222.34260559 431.40414429 C220.2102918 433.25008562 218.62870484 434.02666213 216.00276184 434.95492554 C212.88997603 436.27679348 212.24843389 437.1490755 210.71760559 440.26351929 C209.43564448 443.90554337 208.30216771 447.57033852 207.19026184 451.26742554 C206.46533377 453.21444519 205.71856658 455.15362131 204.94026184 457.07992554 C204.62573059 457.87012085 204.31119934 458.66031616 203.98713684 459.47445679 C203.19026184 461.26742554 203.19026184 461.26742554 202.19026184 462.26742554 C199.89874767 462.35533529 197.6045366 462.37436592 195.31135559 462.36508179 C194.28136192 462.36295937 194.28136192 462.36295937 193.2305603 462.36079407 C191.02958383 462.35518033 188.82870775 462.34262561 186.62776184 462.32992554 C185.13883101 462.3249123 183.6498986 462.32034909 182.16096497 462.31625366 C178.50403109 462.30520647 174.84715626 462.28793267 171.19026184 462.26742554 C170.96886536 461.60621704 170.74746887 460.94500854 170.5193634 460.26376343 C169.50975083 457.27983822 168.47541763 454.30508073 167.44026184 451.32992554 C167.09221497 450.28900757 166.74416809 449.2480896 166.38557434 448.17562866 C166.03752747 447.18627319 165.68948059 446.19691772 165.33088684 445.17758179 C165.01667786 444.26113892 164.70246887 443.34469604 164.3787384 442.40048218 C163.42135147 440.12875759 163.42135147 440.12875759 161.41512585 439.64120483 C159.03287221 439.24098393 156.81987875 439.14745726 154.40396118 439.15390015 C153.44384125 439.15397064 152.48372131 439.15404114 151.49450684 439.15411377 C150.44769241 439.15928009 149.40087799 439.16444641 148.32234192 439.16976929 C147.21455383 439.17122955 146.10676575 439.17268982 144.96540833 439.17419434 C142.55856697 439.178001 140.15172843 439.18411827 137.74489784 439.19226074 C133.93213975 439.20501806 130.11941644 439.2115389 126.30664062 439.21640015 C117.51845045 439.22880938 108.73029302 439.25043808 99.94212341 439.27262878 C91.2578623 439.29446278 82.57361726 439.31231907 73.88933372 439.32336426 C70.13983301 439.32983062 66.39038357 439.34234152 62.64089966 439.35507202 C60.32898503 439.35870672 58.01706993 439.36205818 55.70515442 439.36508179 C54.66846115 439.37024811 53.63176788 439.37541443 52.56365967 439.3807373 C46.68847013 439.38116244 41.01728418 439.02872258 35.19026184 438.26742554 C34.95242981 439.23228882 34.95242981 439.23228882 34.70979309 440.21664429 C33.30090909 445.67315085 31.62975119 450.91076129 29.57698059 456.16195679 C29.12927307 457.31155884 28.68156555 458.46116089 28.22029114 459.64559937 C27.88038147 460.510802 27.5404718 461.37600464 27.19026184 462.26742554 C22.83041723 462.39105781 18.47150129 462.48177462 14.11042786 462.54208374 C12.62717417 462.56722363 11.14404431 462.60134146 9.66120911 462.6446228 C7.52865589 462.70530811 5.39773979 462.73363669 3.26448059 462.75570679 C1.33995056 462.79498291 1.33995056 462.79498291 -0.62345886 462.83505249 C-3.80973816 462.26742554 -3.80973816 462.26742554 -5.65153503 460.00692749 C-6.6427864 457.66231713 -7.61235539 455.36198063 -8.41520691 452.94711304 C-8.67624207 452.1646521 -8.93727722 451.38219116 -9.20622253 450.57601929 C-9.46725769 449.77293335 -9.72829285 448.96984741 -9.99723816 448.14242554 C-10.26987488 447.33160522 -10.5425116 446.52078491 -10.82341003 445.68539429 C-12.80973816 439.66169245 -12.80973816 439.66169245 -12.80973816 436.26742554 C-13.46973816 436.22617554 -14.12973816 436.18492554 -14.80973816 436.14242554 C-22.08104098 434.02162888 -26.57630942 428.78936036 -30.58317566 422.61117554 C-33.46784977 417.09905941 -34.19204658 411.81181754 -34.426651 405.66690063 C-34.46426666 404.80166094 -34.50188232 403.93642125 -34.54063785 403.04496217 C-35.02069764 390.66112331 -34.94926989 378.26667828 -34.93913269 365.87582397 C-34.93994171 363.06362326 -34.9422379 360.25142416 -34.94444275 357.43922424 C-34.94885994 350.62655554 -34.94793999 343.81389795 -34.94503011 337.00122884 C-34.9427504 331.42595107 -34.94247456 325.85067636 -34.94355392 320.27539825 C-34.94378377 319.07422159 -34.94378377 319.07422159 -34.94401827 317.84877874 C-34.94433811 316.22015307 -34.94466232 314.59152741 -34.94499086 312.96290174 C-34.94783634 297.7157907 -34.94457826 282.46868569 -34.93919049 267.22157565 C-34.93476795 254.31188842 -34.93546206 241.40221024 -34.94010925 228.49252319 C-34.94555004 213.37207334 -34.9475155 198.25162884 -34.94449699 183.13117814 C-34.9441786 181.49340963 -34.94386423 179.85564113 -34.94355392 178.21787262 C-34.94339965 177.4129629 -34.94324537 176.60805318 -34.94308642 175.77875225 C-34.94224579 170.27645794 -34.94365753 164.77416724 -34.94603348 159.27187347 C-34.95334024 140.13984458 -34.92332107 121.00833231 -34.831357 101.87650871 C-34.816161 98.70839325 -34.80262892 95.54027612 -34.79022503 92.37214851 C-34.75325648 83.14922469 -34.70114236 73.92667579 -34.61502739 64.70406748 C-34.57777901 60.70539647 -34.54636471 56.70692688 -34.53143144 52.70810461 C-34.51712047 48.99198797 -34.48383841 45.27650965 -34.43625417 41.56067461 C-34.41520581 39.55987587 -34.41323673 37.55890438 -34.41198421 35.55799532 C-34.23330677 24.3175735 -31.68077749 16.37121367 -23.89176941 8.17758179 C-16.92967225 1.79021685 -9.18733211 -0.03506157 0 0 Z M127.01008773 16.28262877 C111.4302466 16.29528581 95.85066295 16.3353593 80.27094841 16.39953423 C71.64335439 16.43447091 63.01592892 16.45958314 54.38825989 16.46298218 C46.73015388 16.46602167 39.07232757 16.48643982 31.41432983 16.52795011 C27.39773601 16.54914581 23.38153929 16.56194474 19.36488914 16.55357933 C15.62204334 16.54604504 11.88001861 16.56183406 8.13732338 16.59548569 C6.12212326 16.60760541 4.1068218 16.59514942 2.09162903 16.5818634 C-5.22453246 16.67443869 -9.41788914 17.15979277 -14.80973816 22.26742554 C-18.84262911 27.76682228 -17.95230156 36.10223587 -17.92999268 42.65107727 C-17.9308471 43.57585753 -17.93170153 44.50063778 -17.93258184 45.45344168 C-17.93422426 48.54111443 -17.92873557 51.62873243 -17.92326355 54.71640015 C-17.92298139 56.93415323 -17.92313999 59.1519064 -17.92370605 61.36965942 C-17.92399288 67.38352411 -17.91811457 73.39736884 -17.9111321 79.4112289 C-17.90487958 85.69862565 -17.90429326 91.98602286 -17.90310669 98.27342224 C-17.90035203 108.82424254 -17.8941064 119.3750563 -17.88517761 129.9258728 C-17.87599233 140.79110681 -17.86891696 151.65633882 -17.8646698 162.52157593 C-17.86440708 163.19181087 -17.86414435 163.86204581 -17.86387367 164.5525909 C-17.86256859 167.91511248 -17.86130489 171.27763407 -17.86006176 174.64015567 C-17.84961006 202.51591739 -17.83202144 230.39167095 -17.80973816 258.26742554 C-12.85973816 258.26742554 -7.90973816 258.26742554 -2.80973816 258.26742554 C-2.47973816 214.70742554 -2.14973816 171.14742554 -1.80973816 126.26742554 C64.85026184 126.26742554 131.51026184 126.26742554 200.19026184 126.26742554 C200.52026184 169.82742554 200.85026184 213.38742554 201.19026184 258.26742554 C206.14026184 258.26742554 211.09026184 258.26742554 216.19026184 258.26742554 C216.25872786 229.35776573 216.31180544 200.4481155 216.34345783 171.53839055 C216.34720986 168.12384999 216.35109284 164.7093096 216.35505676 161.29476929 C216.35584369 160.6150076 216.35663063 159.93524592 216.3574414 159.23488539 C216.37048851 148.23423687 216.39413851 137.23363547 216.42172023 126.23301488 C216.4497938 114.94189673 216.46621773 103.65080207 216.47252733 92.35964727 C216.47643885 86.01902997 216.48563449 79.67851948 216.50745201 73.3379364 C216.52782355 67.36918987 216.53409421 61.4005941 216.52958488 55.4318161 C216.53040978 53.24209016 216.53637134 51.05235914 216.54787827 48.86266327 C216.56283258 45.86999875 216.55920449 42.87790139 216.55102539 39.88522339 C216.55976391 39.02138991 216.56850244 38.15755643 216.57750577 37.26754618 C216.53584767 31.61742444 215.5653802 27.4179818 213.19026184 22.26742554 C208.05732846 17.38487915 204.08137371 17.01814072 197.21638489 16.70956421 C195.86421513 16.64624421 195.86421513 16.64624421 194.48472881 16.58164501 C185.57691206 16.19351443 176.68674051 16.15046144 167.77229309 16.19320679 C165.92397173 16.19831896 164.07564901 16.2029606 162.22732544 16.2071991 C157.99443926 16.21761369 153.76157459 16.23115562 149.52870178 16.2460022 C142.02249855 16.27036656 134.51632223 16.27670831 127.01008773 16.28262877 Z M45.19026184 141.26742554 C45.19026184 150.17742554 45.19026184 159.08742554 45.19026184 168.26742554 C48.82026184 168.26742554 52.45026184 168.26742554 56.19026184 168.26742554 C56.19026184 159.35742554 56.19026184 150.44742554 56.19026184 141.26742554 C52.56026184 141.26742554 48.93026184 141.26742554 45.19026184 141.26742554 Z M142.19026184 141.26742554 C142.19026184 150.17742554 142.19026184 159.08742554 142.19026184 168.26742554 C145.82026184 168.26742554 149.45026184 168.26742554 153.19026184 168.26742554 C153.19026184 159.35742554 153.19026184 150.44742554 153.19026184 141.26742554 C149.56026184 141.26742554 145.93026184 141.26742554 142.19026184 141.26742554 Z M14.19026184 142.26742554 C13.40728545 157.4749698 13.05071766 172.63099187 13.09260559 187.85726929 C13.09447837 189.90947942 13.09589819 191.96169001 13.09689331 194.01390076 C13.10065093 199.32860624 13.11042054 204.64328293 13.12159729 209.95797729 C13.13379218 216.38118139 13.13824591 222.80439529 13.1440506 229.22760773 C13.15363832 238.90756682 13.17284139 248.58746315 13.19026184 258.26742554 C42.89026184 258.26742554 72.59026184 258.26742554 103.19026184 258.26742554 C103.19026184 263.54742554 103.19026184 268.82742554 103.19026184 274.26742554 C63.26026184 274.26742554 23.33026184 274.26742554 -17.80973816 274.26742554 C-17.89716098 297.88850428 -17.89716098 297.88850428 -17.95622253 321.50961304 C-17.97401411 331.14410195 -17.99491459 340.77851207 -18.03605652 350.41293335 C-18.06600744 357.43005671 -18.08532466 364.44711607 -18.09200364 371.46430159 C-18.09590629 375.17805882 -18.1050448 378.89163299 -18.12692833 382.60533142 C-18.15118982 386.75644976 -18.15170451 390.90725211 -18.15031433 395.05844116 C-18.16110016 396.28267792 -18.17188599 397.50691467 -18.18299866 398.76824951 C-18.15579881 406.27720059 -18.03480978 413.04235392 -12.43473816 418.64242554 C-7.06626605 421.96576542 -2.60694322 422.55801224 3.64091492 422.52812195 C4.48962697 422.5319475 5.33833903 422.53577304 6.21276963 422.53971452 C9.05542777 422.55002968 11.89788337 422.54605517 14.74055481 422.54208374 C16.77917162 422.54643105 18.81778679 422.55161426 20.85639954 422.55757141 C26.39360534 422.57097105 31.93074293 422.57153897 37.46796179 422.56900811 C42.09026901 422.56793899 46.71256239 422.57282031 51.33486664 422.57761353 C62.23996331 422.58871221 73.14502554 422.58914419 84.05012512 422.58309937 C95.30011634 422.57705924 106.54998251 422.58937081 117.79995239 422.61066943 C127.4586895 422.62828315 137.1173868 422.63428712 146.77613938 422.63103169 C152.54486943 422.62921822 158.31351029 422.6318614 164.0822258 422.64574623 C169.5077081 422.65831603 174.93299544 422.65638839 180.35847473 422.64333534 C182.34866018 422.64096812 184.33885932 422.64370945 186.32902908 422.65195847 C189.04812619 422.66241526 191.76656784 422.65433376 194.48564148 422.64164734 C195.27115824 422.64902162 196.05667499 422.65639591 196.86599529 422.66399366 C203.04903648 422.60340303 207.97744071 421.48024666 212.50276184 416.95492554 C215.44114813 412.27527329 216.44106486 407.94543572 216.43077087 402.45874023 C216.4335202 401.32299561 216.43626953 400.18725098 216.43910217 399.01708984 C216.43191162 397.78566254 216.42472107 396.55423523 216.41731262 395.28549194 C216.41760468 393.97763733 216.41789673 392.66978271 216.41819763 391.32229614 C216.41876999 387.74832982 216.40703475 384.17449854 216.39304972 380.60056353 C216.38052277 376.86097434 216.37937031 373.12138184 216.3769989 369.3817749 C216.3707899 362.30583469 216.35438695 355.22995649 216.33429992 348.15404356 C216.30773635 338.58845569 216.29696359 329.0228508 216.28529549 319.45723534 C216.26650592 304.39391898 216.22665641 289.33073347 216.19026184 274.26742554 C194.08026184 274.26742554 171.97026184 274.26742554 149.19026184 274.26742554 C149.52026184 269.31742554 149.85026184 264.36742554 150.19026184 259.26742554 C167.51526184 258.77242554 167.51526184 258.77242554 185.19026184 258.26742554 C185.19026184 219.65742554 185.19026184 181.04742554 185.19026184 141.26742554 C180.24026184 141.26742554 175.29026184 141.26742554 170.19026184 141.26742554 C169.86026184 155.12742554 169.53026184 168.98742554 169.19026184 183.26742554 C164.19026184 184.26742554 164.19026184 184.26742554 156.19026184 184.26742554 C156.19026184 189.54742554 156.19026184 194.82742554 156.19026184 200.26742554 C150.91026184 200.26742554 145.63026184 200.26742554 140.19026184 200.26742554 C140.19026184 195.31742554 140.19026184 190.36742554 140.19026184 185.26742554 C133.26026184 184.77242554 133.26026184 184.77242554 126.19026184 184.26742554 C126.19026184 170.40742554 126.19026184 156.54742554 126.19026184 142.26742554 C108.37026184 142.26742554 90.55026184 142.26742554 72.19026184 142.26742554 C71.86026184 156.12742554 71.53026184 169.98742554 71.19026184 184.26742554 C66.90026184 184.59742554 62.61026184 184.92742554 58.19026184 185.26742554 C58.19026184 190.21742554 58.19026184 195.16742554 58.19026184 200.26742554 C52.91026184 200.26742554 47.63026184 200.26742554 42.19026184 200.26742554 C42.19026184 195.31742554 42.19026184 190.36742554 42.19026184 185.26742554 C35.26026184 184.77242554 35.26026184 184.77242554 28.19026184 184.26742554 C28.19026184 170.40742554 28.19026184 156.54742554 28.19026184 142.26742554 C20.91893439 141.30251343 20.91893439 141.30251343 14.19026184 142.26742554 Z M6.19026184 438.26742554 C6.52026184 440.57742554 6.85026184 442.88742554 7.19026184 445.26742554 C9.83026184 445.26742554 12.47026184 445.26742554 15.19026184 445.26742554 C15.85026184 442.95742554 16.51026184 440.64742554 17.19026184 438.26742554 C13.56026184 438.26742554 9.93026184 438.26742554 6.19026184 438.26742554 Z M181.19026184 438.26742554 C181.85026184 440.57742554 182.51026184 442.88742554 183.19026184 445.26742554 C185.83026184 445.26742554 188.47026184 445.26742554 191.19026184 445.26742554 C191.85026184 442.95742554 192.51026184 440.64742554 193.19026184 438.26742554 C189.23026184 438.26742554 185.27026184 438.26742554 181.19026184 438.26742554 Z " fill="#030203" transform="translate(150.8097381591797,18.732574462890625)"/>
<path d="M0 0 C0.70253906 0.00386719 1.40507812 0.00773437 2.12890625 0.01171875 C2.83144531 0.00785156 3.53398437 0.00398438 4.2578125 0 C9.50229247 0.01010497 9.50229247 0.01010497 10.62890625 1.13671875 C10.72865657 3.64807979 10.76772808 6.1257529 10.75390625 8.63671875 C10.75970703 9.69052734 10.75970703 9.69052734 10.765625 10.765625 C10.75552003 16.01010497 10.75552003 16.01010497 9.62890625 17.13671875 C7.31816457 17.23604267 5.00427683 17.26641493 2.69140625 17.26171875 C0.79068359 17.26558594 0.79068359 17.26558594 -1.1484375 17.26953125 C-4.37109375 17.13671875 -4.37109375 17.13671875 -6.37109375 16.13671875 C-6.3979447 13.65748074 -6.41785922 11.17853035 -6.43359375 8.69921875 C-6.44616211 7.63864258 -6.44616211 7.63864258 -6.45898438 6.55664062 C-6.46762963 4.74978316 -6.42329386 2.94284272 -6.37109375 1.13671875 C-4.61549433 -0.61888067 -2.33526933 0.00449956 0 0 Z " fill="#050305" transform="translate(310.37109375,49.86328125)"/>
<path d="M0 0 C3.6815625 -0.0309375 3.6815625 -0.0309375 7.4375 -0.0625 C8.21150146 -0.071604 8.98550293 -0.08070801 9.78295898 -0.09008789 C11.52221717 -0.09724913 13.26145304 -0.05024702 15 0 C16 1 16 1 16.09765625 4.59765625 C16.09191272 6.08597255 16.07889891 7.57426296 16.0625 9.0625 C16.041875 11.681875 16.02125 14.30125 16 17 C10.72 17 5.44 17 0 17 C0 11.39 0 5.78 0 0 Z " fill="#030203" transform="translate(336,50)"/>
<path d="M0 0 C5.28 0 10.56 0 16 0 C16 5.61 16 11.22 16 17 C13.545625 17.020625 11.09125 17.04125 8.5625 17.0625 C7.78849854 17.071604 7.01449707 17.08070801 6.21704102 17.09008789 C4.47778283 17.09724913 2.73854696 17.05024702 1 17 C0 16 0 16 -0.09765625 12.40234375 C-0.09191272 10.91402745 -0.07889891 9.42573704 -0.0625 7.9375 C-0.041875 5.318125 -0.02125 2.69875 0 0 Z " fill="#050405" transform="translate(273,50)"/>
<path d="M0 0 C0.70253906 0.00386719 1.40507812 0.00773437 2.12890625 0.01171875 C2.83144531 0.00785156 3.53398437 0.00398438 4.2578125 0 C9.50229247 0.01010497 9.50229247 0.01010497 10.62890625 1.13671875 C10.72799927 3.4683193 10.75861129 5.80301817 10.75390625 8.13671875 C10.75777344 10.05484375 10.75777344 10.05484375 10.76171875 12.01171875 C10.62890625 15.13671875 10.62890625 15.13671875 9.62890625 16.13671875 C6.93235771 16.20991496 4.26199167 16.22914412 1.56640625 16.19921875 C0.80779297 16.19470703 0.04917969 16.19019531 -0.73242188 16.18554688 C-2.61201246 16.17372555 -4.49156274 16.15578953 -6.37109375 16.13671875 C-6.3979447 13.65748074 -6.41785922 11.17853035 -6.43359375 8.69921875 C-6.44616211 7.63864258 -6.44616211 7.63864258 -6.45898438 6.55664062 C-6.46762963 4.74978316 -6.42329386 2.94284272 -6.37109375 1.13671875 C-4.61549433 -0.61888067 -2.33526933 0.00449956 0 0 Z " fill="#030303" transform="translate(275.37109375,276.86328125)"/>
<path d="M0 0 C4.01127801 0.83568292 5.47781462 2.45425266 8 5.625 C9 7.5625 9 7.5625 9 9.625 C7.8089726 12.75928263 6.83882035 14.95972869 4.1875 17.0625 C1.09366104 17.85805859 -0.94094704 17.51722378 -4 16.625 C-6.375 15 -6.375 15 -8 12.625 C-8.5625 9.1875 -8.5625 9.1875 -8 5.625 C-5.55401113 2.24378009 -4.10703441 0.85563217 0 0 Z " fill="#040404" transform="translate(164,100.375)"/>
<path d="M0 0 C3.8425303 0.72047443 5.45767292 1.57152696 8 4.5625 C8.79601977 9.57742456 8.77842337 11.40665924 5.9375 15.625 C3 17.5625 3 17.5625 -0.5625 17.625 C-4.30475404 16.4683033 -5.85214665 15.82723709 -8 12.5625 C-8.5625 9.125 -8.5625 9.125 -8 5.5625 C-5.54999553 2.17572911 -4.13607554 0.77551416 0 0 Z " fill="#030304" transform="translate(164,65.4375)"/>
</svg>