<svg viewBox="0 0 50 50" xmlns="http://www.w3.org/2000/svg"><path d="m3 8c-1.644531 0-3 1.355469-3 3v28c0 1.644531 1.355469 3 3 3h2v1c0 1.09375.90625 2 2 2h3c1.09375 0 2-.90625 2-2v-1h26v1c0 1.09375.90625 2 2 2h3c1.09375 0 2-.90625 2-2v-1h2c1.644531 0 3-1.355469 3-3v-28c0-1.644531-1.355469-3-3-3zm0 2h44c.5625 0 1 .4375 1 1v28c0 .5625-.4375 1-1 1h-7.8125c-.132812-.027344-.273437-.027344-.40625 0h-32.59375c-.132812-.027344-.273437-.027344-.40625 0h-2.78125c-.5625 0-1-.4375-1-1v-28c0-.5625.4375-1 1-1zm2 3v24h35v-24zm2 2h31v20h-31zm37 1c-1.105469 0-2 .894531-2 2s.894531 2 2 2 2-.894531 2-2-.894531-2-2-2zm-9.84375 3.9375c-.199219-.003906-.394531.050781-.5625.15625 0 0-4.628906 1.90625-7.46875 1.90625-1.417969 0-2.375-.40625-3.53125-.90625s-2.527344-1.09375-4.375-1.09375c-3.695312 0-7.65625 2.09375-7.65625 2.09375-.5.242188-.710937.84375-.46875 1.34375.242188.5.84375.710938 1.34375.46875 0 0 3.894531-1.90625 6.78125-1.90625 1.445313 0 2.410156.40625 3.5625.90625s2.515625 1.09375 4.34375 1.09375c3.660156 0 8.28125-2.09375 8.28125-2.09375.488281-.125.808594-.59375.742188-1.09375-.0625-.5-.488282-.875-.992188-.875zm9.84375 3.0625c-1.105469 0-2 .894531-2 2s.894531 2 2 2 2-.894531 2-2-.894531-2-2-2zm-9.84375 2.9375c-.199219-.003906-.394531.050781-.5625.15625 0 0-4.628906 1.90625-7.46875 1.90625-1.417969 0-2.375-.40625-3.53125-.90625s-2.527344-1.09375-4.375-1.09375c-3.695312 0-7.65625 2.09375-7.65625 2.09375-.5.242188-.710937.84375-.46875 1.34375.242188.5.84375.710938 1.34375.46875 0 0 3.894531-1.90625 6.78125-1.90625 1.445313 0 2.410156.40625 3.5625.90625s2.515625 1.09375 4.34375 1.09375c3.660156 0 8.28125-2.09375 8.28125-2.09375.488281-.125.808594-.59375.742188-1.09375-.0625-.5-.488282-.875-.992188-.875zm9.84375 4.0625c-1.105469 0-2 .894531-2 2s.894531 2 2 2 2-.894531 2-2-.894531-2-2-2zm-37 12h3v1h-3zm33 0h3v1h-3z"/></svg>